<svg width="237" height="63" viewBox="0 0 237 63" fill="none" xmlns="http://www.w3.org/2000/svg">
<path d="M56.7306 25.1148C56.7306 28.5363 56.0824 31.4471 54.786 33.8472C53.4998 36.2473 51.744 38.0806 49.5187 39.347C47.3036 40.6033 44.8128 41.2314 42.0465 41.2314C39.2597 41.2314 36.7587 40.5982 34.5436 39.3317C32.3285 38.0653 30.5778 36.232 29.2916 33.8319C28.0054 31.4317 27.3623 28.5261 27.3623 25.1148C27.3623 21.6934 28.0054 18.7826 29.2916 16.3825C30.5778 13.9823 32.3285 12.1542 34.5436 10.8979C36.7587 9.63149 39.2597 8.99826 42.0465 8.99826C44.8128 8.99826 47.3036 9.63149 49.5187 10.8979C51.744 12.1542 53.4998 13.9823 54.786 16.3825C56.0824 18.7826 56.7306 21.6934 56.7306 25.1148ZM50.0087 25.1148C50.0087 22.8985 49.6769 21.0295 49.0134 19.5077C48.3601 17.986 47.4363 16.8319 46.2419 16.0454C45.0476 15.259 43.6491 14.8658 42.0465 14.8658C40.4438 14.8658 39.0453 15.259 37.851 16.0454C36.6567 16.8319 35.7277 17.986 35.0642 19.5077C34.4109 21.0295 34.0843 22.8985 34.0843 25.1148C34.0843 27.3311 34.4109 29.2001 35.0642 30.7219C35.7277 32.2437 36.6567 33.3978 37.851 34.1842C39.0453 34.9706 40.4438 35.3638 42.0465 35.3638C43.6491 35.3638 45.0476 34.9706 46.2419 34.1842C47.4363 33.3978 48.3601 32.2437 49.0134 30.7219C49.6769 29.2001 50.0087 27.3311 50.0087 25.1148Z" fill="#846DA6"/>
<path d="M61.5194 49.6267V17.271H67.9505V21.2236H68.2414C68.5272 20.5903 68.9406 19.9469 69.4817 19.2933C70.0329 18.6294 70.7474 18.0779 71.6253 17.6387C72.5134 17.1893 73.6159 16.9646 74.9327 16.9646C76.6476 16.9646 78.2299 17.414 79.6794 18.3128C81.1289 19.2013 82.2875 20.5444 83.1552 22.3419C84.0229 24.1292 84.4567 26.3711 84.4567 29.0674C84.4567 31.6922 84.0331 33.9085 83.1858 35.7162C82.3488 37.5137 81.2055 38.8772 79.756 39.8066C78.3166 40.7258 76.7038 41.1854 74.9174 41.1854C73.6516 41.1854 72.5747 40.9761 71.6866 40.5573C70.8087 40.1386 70.089 39.6126 69.5276 38.9794C68.9661 38.3359 68.5374 37.6874 68.2414 37.0337H68.0423V49.6267H61.5194ZM67.9045 29.0367C67.9045 30.4359 68.0985 31.6564 68.4864 32.6982C68.8743 33.7399 69.4357 34.5519 70.1707 35.1341C70.9057 35.706 71.7989 35.992 72.8503 35.992C73.9119 35.992 74.8102 35.7009 75.5452 35.1187C76.2802 34.5264 76.8365 33.7093 77.2142 32.6675C77.6021 31.6156 77.796 30.4053 77.796 29.0367C77.796 27.6784 77.6072 26.4834 77.2295 25.4519C76.8518 24.4203 76.2955 23.6135 75.5605 23.0313C74.8255 22.4492 73.9221 22.1581 72.8503 22.1581C71.7887 22.1581 70.8904 22.4389 70.1554 23.0007C69.4306 23.5624 68.8743 24.359 68.4864 25.3906C68.0985 26.4221 67.9045 27.6375 67.9045 29.0367Z" fill="#846DA6"/>
<path d="M99.5237 41.262C97.1044 41.262 95.022 40.7718 93.2764 39.7913C91.5411 38.8006 90.2038 37.4014 89.2647 35.5937C88.3255 33.7757 87.856 31.6258 87.856 29.144C87.856 26.7234 88.3255 24.5991 89.2647 22.7709C90.2038 20.9427 91.5257 19.5179 93.2305 18.4966C94.9454 17.4753 96.9564 16.9646 99.2634 16.9646C100.815 16.9646 102.259 17.2148 103.597 17.7153C104.944 18.2055 106.118 18.946 107.118 19.9367C108.129 20.9274 108.915 22.1734 109.476 23.6747C110.038 25.1659 110.319 26.9124 110.319 28.9142V30.7066H90.459V26.6621H104.179C104.179 25.7225 103.974 24.8901 103.566 24.165C103.158 23.4398 102.591 22.873 101.866 22.4645C101.152 22.0457 100.32 21.8364 99.3706 21.8364C98.3804 21.8364 97.5025 22.0662 96.7369 22.5258C95.9815 22.9751 95.3895 23.5828 94.9607 24.3488C94.532 25.1046 94.3125 25.9472 94.3023 26.8766V30.7219C94.3023 31.8862 94.5167 32.8922 94.9454 33.7399C95.3844 34.5876 96.0019 35.2413 96.7982 35.7009C97.5944 36.1605 98.5386 36.3903 99.6309 36.3903C100.356 36.3903 101.019 36.2882 101.621 36.0839C102.224 35.8796 102.739 35.5732 103.168 35.1647C103.597 34.7562 103.923 34.2557 104.148 33.6633L110.181 34.0617C109.875 35.5119 109.247 36.7784 108.297 37.861C107.358 38.9334 106.144 39.7709 104.653 40.3735C103.173 40.9658 101.463 41.262 99.5237 41.262Z" fill="#846DA6"/>
<path d="M121.098 27.1983V40.8024H114.575V17.271H120.792V21.4227H121.068C121.588 20.0541 122.461 18.9715 123.686 18.1749C124.911 17.368 126.396 16.9646 128.142 16.9646C129.775 16.9646 131.199 17.3221 132.414 18.037C133.628 18.7519 134.573 19.7733 135.246 21.101C135.92 22.4185 136.257 23.9914 136.257 25.8195V40.8024H129.734V26.9839C129.744 25.5438 129.377 24.4203 128.632 23.6135C127.887 22.7964 126.861 22.3879 125.554 22.3879C124.676 22.3879 123.9 22.5768 123.227 22.9547C122.563 23.3326 122.042 23.8841 121.665 24.6093C121.297 25.3242 121.108 26.1872 121.098 27.1983Z" fill="#846DA6"/>
<path fill-rule="evenodd" clip-rule="evenodd" d="M27.3145 63H38.8154C38.8154 63 21.2539 42.2215 21.8516 26.1781C22.4494 10.1347 34.68 6.05634 40.253 4.0274C45.826 1.99845 48.9382 1.82844 52.6164 1.15068C56.2947 0.472932 0 0 0 0" fill="#A1BF90"/>
<path d="M139.195 40.7633V9.3881H151.751C154.058 9.3881 155.982 9.73024 157.523 10.4145C159.065 11.0988 160.223 12.0487 160.999 13.264C161.775 14.4692 162.163 15.8582 162.163 17.4311C162.163 18.6567 161.918 19.7342 161.428 20.6636C160.938 21.5828 160.264 22.3385 159.407 22.9309C158.559 23.5131 157.59 23.9267 156.497 24.1718V24.4782C157.692 24.5293 158.81 24.8663 159.851 25.4893C160.902 26.1123 161.755 26.9856 162.408 28.109C163.061 29.2223 163.388 30.55 163.388 32.0922C163.388 33.757 162.974 35.243 162.148 36.5503C161.331 37.8474 160.121 38.8738 158.519 39.6296C156.916 40.3854 154.941 40.7633 152.593 40.7633H139.195ZM145.825 35.34H151.23C153.078 35.34 154.425 34.9877 155.273 34.283C156.12 33.568 156.543 32.6182 156.543 31.4335C156.543 30.5653 156.334 29.7993 155.916 29.1355C155.497 28.4716 154.9 27.9507 154.124 27.5728C153.359 27.195 152.445 27.006 151.383 27.006H145.825V35.34ZM145.825 22.5173H150.74C151.649 22.5173 152.455 22.359 153.159 22.0424C153.874 21.7155 154.435 21.2559 154.844 20.6636C155.262 20.0712 155.472 19.3614 155.472 18.5341C155.472 17.4004 155.068 16.4863 154.262 15.7918C153.466 15.0973 152.333 14.7501 150.863 14.7501H145.825V22.5173Z" fill="#A1BF90"/>
<path d="M167.579 40.7633V17.2319H174.102V40.7633H167.579ZM170.856 14.1986C169.886 14.1986 169.055 13.8768 168.36 13.2334C167.676 12.5797 167.334 11.7984 167.334 10.8894C167.334 9.99068 167.676 9.21958 168.36 8.57614C169.055 7.92249 169.886 7.59566 170.856 7.59566C171.826 7.59566 172.653 7.92249 173.337 8.57614C174.031 9.21958 174.378 9.99068 174.378 10.8894C174.378 11.7984 174.031 12.5797 173.337 13.2334C172.653 13.8768 171.826 14.1986 170.856 14.1986Z" fill="#A1BF90"/>
<path d="M185.85 9.3881V40.7633H179.328V9.3881H185.85Z" fill="#A1BF90"/>
<path d="M191.076 40.7633V17.2319H197.599V40.7633H191.076ZM194.352 14.1986C193.383 14.1986 192.551 13.8768 191.857 13.2334C191.173 12.5797 190.831 11.7984 190.831 10.8894C190.831 9.99068 191.173 9.21958 191.857 8.57614C192.551 7.92249 193.383 7.59566 194.352 7.59566C195.322 7.59566 196.149 7.92249 196.833 8.57614C197.527 9.21958 197.874 9.99068 197.874 10.8894C197.874 11.7984 197.527 12.5797 196.833 13.2334C196.149 13.8768 195.322 14.1986 194.352 14.1986Z" fill="#A1BF90"/>
<path d="M202.824 40.7633V17.2319H209.04V21.3836H209.316C209.806 20.0048 210.623 18.9171 211.766 18.1205C212.909 17.3238 214.277 16.9255 215.87 16.9255C217.482 16.9255 218.855 17.3289 219.988 18.1358C221.122 18.9324 221.877 20.015 222.255 21.3836H222.5C222.979 20.0354 223.847 18.9579 225.103 18.1511C226.368 17.334 227.864 16.9255 229.589 16.9255C231.784 16.9255 233.565 17.6251 234.933 19.0243C236.311 20.4133 237 22.3845 237 24.9378V40.7633H230.492V26.2247C230.492 24.9174 230.145 23.9369 229.451 23.2833C228.757 22.6296 227.889 22.3028 226.848 22.3028C225.664 22.3028 224.74 22.6807 224.077 23.4365C223.413 24.182 223.081 25.1676 223.081 26.3932V40.7633H216.758V26.0868C216.758 24.9327 216.426 24.0135 215.762 23.3292C215.109 22.6449 214.246 22.3028 213.175 22.3028C212.45 22.3028 211.797 22.4866 211.215 22.8543C210.643 23.2118 210.189 23.7173 209.852 24.371C209.515 25.0144 209.347 25.7702 209.347 26.6383V40.7633H202.824Z" fill="#A1BF90"/>
</svg>
